<svg xmlns="http://www.w3.org/2000/svg" width="121" height="82" viewBox="0 0 121 82"><g transform="translate(1882 21427)"><path d="M1,1V26H89V1H1M0,0H90V27H0Z" transform="translate(-1882 -21427)"/><path d="M1,1V26H89V1H1M0,0H90V27H0Z" transform="translate(-1882 -21372)"/><rect width="90" height="24" transform="translate(-1882 -21398)"/><path d="M1,1V23H89V1H1M0,0H90V24H0Z" transform="translate(-1882 -21398)"/><rect width="27" height="26" transform="translate(-1761 -21427) rotate(90)"/><path d="M1,1V25H26V1H1M0,0H27V26H0Z" transform="translate(-1761 -21427) rotate(90)"/><path d="M1,1V25H52V1H1M0,0H53V26H0Z" transform="translate(-1761 -21398) rotate(90)"/></g></svg>