<?xml version="1.0" standalone="no"?>
<!DOCTYPE svg PUBLIC "-//W3C//DTD SVG 20010904//EN"
 "http://www.w3.org/TR/2001/REC-SVG-20010904/DTD/svg10.dtd">
<svg version="1.0" xmlns="http://www.w3.org/2000/svg"
 width="968.000000pt" height="968.000000pt" viewBox="0 0 968.000000 968.000000"
 preserveAspectRatio="xMidYMid meet">
<metadata>
Created by potrace 1.14, written by Peter Selinger 2001-2017
</metadata>
<g transform="translate(0.000000,968.000000) scale(0.100000,-0.100000)"
fill="#000000" stroke="none">
<path d="M0 7042 l0 -1078 33 -3 c17 -2 38 -3 45 -2 16 1 35 2 117 2 135 1
186 -1 195 -6 5 -3 11 -1 14 4 3 5 21 6 40 1 19 -4 37 -5 40 -3 4 4 48 5 169
2 6 0 55 1 109 2 53 1 101 -2 106 -5 6 -3 13 -2 16 3 3 5 19 6 36 2 17 -3 67
-4 111 -1 45 3 83 2 86 -3 2 -4 8 -5 13 -2 7 4 160 6 320 4 8 0 58 1 112 2 53
1 101 -2 106 -5 6 -3 13 -2 16 3 3 5 21 6 40 1 19 -4 37 -5 40 -3 4 4 48 5
169 2 6 0 55 1 109 2 53 1 101 -2 106 -5 6 -3 13 -2 16 3 3 5 21 6 40 1 19 -4
37 -6 39 -4 1 2 41 3 88 3 46 0 93 1 104 1 11 0 72 -1 135 -1 63 0 122 0 130
0 8 0 44 0 80 0 36 -1 72 -1 80 0 8 0 44 0 80 0 36 -1 72 -1 80 0 8 0 44 0 80
0 36 -1 72 -1 80 0 8 0 44 0 80 0 36 -1 72 -1 80 0 8 0 44 0 80 0 36 -1 72 -1
80 0 8 0 44 0 80 0 36 -1 72 -1 80 0 40 2 144 0 150 -4 3 -2 12 0 19 4 7 5 30
5 52 1 22 -4 42 -4 44 0 3 4 20 4 39 0 19 -4 37 -5 40 -3 4 4 48 5 169 2 6 0
55 1 109 2 53 1 101 -2 106 -5 6 -3 13 -2 17 4 4 6 11 8 16 4 6 -3 52 -5 102
-4 51 1 98 1 105 1 27 -2 41 -2 134 0 53 1 101 -2 106 -5 6 -3 13 -2 16 3 3 5
21 6 40 1 19 -4 37 -5 40 -3 4 4 48 5 169 2 6 0 55 1 109 2 53 1 101 -2 106
-5 6 -3 13 -2 17 4 4 6 11 8 16 4 6 -3 52 -5 102 -4 51 1 98 1 105 1 27 -2 41
-2 134 0 53 1 101 -2 106 -5 6 -3 13 -2 16 3 3 5 21 6 40 1 19 -4 37 -5 40 -3
3 3 45 5 93 4 48 -1 95 -2 103 -2 8 0 103 0 210 0 107 0 202 0 210 0 8 0 44 0
80 0 36 -1 72 -1 80 0 8 0 44 0 80 0 36 -1 72 -1 80 0 8 0 44 0 80 0 36 -1 72
-1 80 0 56 2 143 0 150 -4 15 -9 29 21 28 62 0 23 2 45 5 50 3 5 2 15 -3 22
-4 8 -4 26 0 41 4 15 4 46 0 69 -4 22 -5 41 -1 41 7 0 4 138 -4 158 -2 6 0 12
4 12 5 0 5 16 1 35 -4 19 -4 35 0 35 4 0 4 16 0 35 -4 20 -4 38 1 41 5 3 7 9
4 14 -3 5 -5 33 -5 62 2 162 0 230 -5 238 -3 5 -1 11 5 15 6 4 8 10 6 14 -6
10 -7 48 -6 173 1 54 -1 102 -4 107 -4 5 -2 12 4 16 6 4 8 10 5 15 -3 5 -5 33
-5 62 2 162 0 230 -5 238 -3 5 -1 11 5 15 6 4 8 10 6 14 -3 4 -6 23 -6 42 -1
28 -1 215 -1 254 0 6 0 39 1 75 0 36 0 98 1 138 l0 72 -3600 0 -3601 0 0
-1078z m133 998 c18 4 41 4 52 0 11 -4 28 -4 38 -1 11 4 40 4 66 1 26 -3 59
-3 73 1 14 4 31 3 38 -1 7 -4 24 -5 38 -1 14 4 47 4 74 1 27 -4 51 -3 53 0 3
4 17 5 32 3 16 -2 39 -4 53 -4 102 1 133 0 140 -4 5 -3 11 -1 14 3 3 5 18 8
33 5 49 -7 99 -7 110 0 5 3 23 3 39 -2 16 -4 38 -5 49 -1 11 4 32 4 47 -1 15
-4 30 -4 33 1 3 6 16 5 29 0 13 -5 26 -6 30 -3 6 7 142 7 153 0 4 -2 17 -1 28
3 11 4 32 4 47 -1 15 -4 30 -4 33 1 3 5 16 6 28 1 12 -5 30 -5 41 -2 10 4 40
4 66 1 25 -3 58 -3 72 1 14 4 31 3 38 -1 7 -4 24 -5 38 -1 14 4 47 4 74 1 27
-4 51 -3 53 0 3 4 17 5 32 3 16 -2 39 -4 53 -4 102 1 133 0 140 -4 5 -3 11 -1
14 3 3 5 18 8 33 5 49 -7 99 -7 110 0 5 3 23 3 39 -2 16 -4 38 -5 49 -1 11 4
32 4 47 -1 15 -4 30 -4 33 1 3 5 16 6 28 1 12 -5 30 -5 41 -2 10 4 40 4 66 1
25 -3 58 -3 72 1 14 4 31 3 38 -1 7 -4 24 -5 38 -1 14 4 47 4 74 1 27 -4 51
-3 53 0 3 4 17 5 32 3 16 -2 39 -4 53 -4 102 1 133 0 140 -4 5 -3 11 -1 14 3
3 5 18 8 33 5 50 -7 99 -7 110 0 7 4 14 3 17 -2 4 -6 18 -6 35 -1 15 4 34 4
41 0 7 -4 24 -5 38 -1 14 4 47 4 74 1 27 -4 51 -3 53 0 3 4 17 5 32 3 16 -2
39 -4 53 -4 102 1 133 0 140 -4 5 -3 11 -1 14 3 3 5 18 8 33 5 45 -6 102 -7
108 -1 3 2 26 2 50 -2 25 -4 48 -4 50 0 3 4 17 5 32 3 16 -2 39 -4 53 -4 14 0
50 0 80 0 30 0 61 0 68 0 6 1 18 1 25 2 6 0 27 -1 45 -4 17 -2 32 -1 32 3 0 4
17 4 38 1 20 -4 48 -4 62 -1 13 3 46 3 72 0 27 -4 48 -3 48 1 0 4 12 4 27 0
16 -5 37 -5 48 -1 11 4 32 4 47 -1 15 -4 30 -4 33 1 3 5 16 6 28 1 12 -5 30
-5 41 -2 10 4 40 4 66 1 25 -3 58 -3 72 1 14 4 31 3 38 -1 7 -4 24 -5 38 -1
14 4 47 4 74 1 27 -4 51 -3 53 0 3 4 17 5 32 3 16 -2 39 -4 53 -4 102 1 133 0
140 -4 5 -3 11 -1 14 3 3 5 18 8 33 5 49 -7 99 -7 110 0 5 3 23 3 39 -2 16 -4
38 -5 49 -1 11 4 32 4 47 -1 15 -4 30 -4 33 1 3 5 16 6 28 1 12 -5 30 -6 39
-2 9 3 54 4 99 1 44 -3 83 -2 85 1 2 4 16 4 31 2 16 -2 39 -4 53 -4 14 0 50 0
80 0 30 0 61 0 68 0 6 1 18 1 25 2 6 0 27 -1 45 -4 17 -2 32 0 32 5 0 5 4 7 8
4 9 -5 35 -7 132 -6 30 0 64 -2 75 -4 11 -2 32 0 46 4 15 4 32 4 39 0 7 -4 24
-5 38 -1 14 4 47 4 74 1 27 -4 51 -3 53 0 3 4 17 5 32 3 16 -2 39 -4 53 -4
102 1 133 0 140 -4 5 -3 11 -1 14 3 3 5 18 8 33 5 29 -4 93 -6 106 -3 7 2 78
2 98 1 6 -1 7 -6 2 -13 -10 -17 -11 -27 -2 -60 4 -16 4 -28 0 -28 -4 0 -8 -7
-8 -15 0 -8 3 -15 6 -15 7 0 5 -150 -2 -157 -3 -2 -2 -17 3 -33 5 -18 4 -32
-3 -39 -7 -7 -7 -11 -1 -11 7 0 8 -18 4 -48 -3 -27 -3 -61 1 -75 4 -15 3 -29
-1 -32 -5 -3 -6 -16 -1 -28 5 -12 5 -31 1 -42 -4 -11 -4 -32 0 -46 5 -17 4
-31 -3 -38 -7 -7 -7 -11 -1 -11 7 0 8 -18 4 -48 -3 -27 -3 -61 1 -75 4 -15 3
-29 -1 -32 -5 -3 -6 -16 -1 -28 5 -12 5 -31 1 -42 -4 -11 -4 -32 0 -46 5 -17
4 -31 -3 -38 -7 -7 -7 -11 -1 -11 7 0 8 -18 4 -48 -3 -27 -3 -61 1 -75 4 -15
3 -29 -1 -32 -5 -3 -6 -16 -1 -28 5 -12 5 -31 1 -42 -4 -11 -4 -32 0 -46 5
-17 4 -31 -3 -38 -7 -7 -7 -11 -1 -11 7 0 8 -18 4 -48 -3 -27 -3 -61 1 -75 4
-15 3 -29 -1 -32 -5 -3 -7 -12 -4 -20 8 -19 11 -105 4 -105 -7 0 -3 -88 5
-100 3 -5 0 -10 -7 -11 -7 0 -8 -2 -3 -5 6 -2 9 -34 8 -71 -5 -121 -5 -148 -3
-158 8 -35 -1 -43 -45 -45 -25 0 -51 -1 -58 -2 -7 -1 -25 2 -40 6 -15 3 -27 3
-27 -2 0 -5 -19 -6 -42 -2 -24 3 -54 3 -68 0 -13 -3 -46 -3 -72 0 -26 4 -53 3
-59 -1 -7 -4 -26 -3 -43 2 -17 5 -32 5 -34 1 -1 -5 -22 -6 -45 -2 -23 3 -53 3
-67 0 -13 -3 -46 -3 -72 0 -27 4 -48 3 -48 -2 0 -4 -10 -4 -22 1 -13 5 -31 6
-40 2 -9 -3 -54 -4 -100 -1 -46 3 -84 3 -86 0 -1 -3 -29 -3 -62 0 -34 3 -65 3
-71 0 -5 -4 -30 -4 -54 0 -25 4 -45 3 -45 -1 0 -5 -10 -5 -22 0 -13 5 -32 5
-42 1 -11 -3 -38 -3 -62 0 -24 4 -48 4 -55 0 -6 -4 -25 -4 -43 0 -17 3 -43 3
-57 -1 -15 -3 -32 -3 -39 1 -8 5 -23 5 -34 0 -12 -4 -30 -4 -41 0 -11 4 -31 4
-45 0 -14 -4 -34 -5 -45 -3 -11 2 -27 3 -35 3 -8 1 -52 1 -98 1 -45 0 -89 2
-97 5 -8 4 -15 2 -15 -3 0 -5 -27 -6 -60 -3 -33 3 -65 3 -71 0 -5 -4 -30 -4
-54 0 -25 4 -45 3 -45 -1 0 -5 -10 -5 -22 0 -13 5 -32 5 -42 1 -11 -3 -38 -3
-62 0 -24 4 -48 4 -55 0 -6 -4 -25 -4 -43 0 -17 3 -43 3 -57 -1 -15 -3 -32 -3
-39 1 -8 5 -23 5 -34 0 -12 -4 -30 -4 -41 0 -11 4 -31 4 -45 0 -14 -4 -34 -5
-45 -3 -11 2 -27 3 -35 3 -8 1 -52 1 -98 1 -45 0 -89 2 -97 5 -8 4 -15 2 -15
-3 0 -5 -27 -6 -60 -3 -33 3 -65 3 -71 0 -5 -4 -30 -4 -54 0 -25 4 -45 3 -45
-1 0 -5 -11 -4 -24 1 -13 5 -26 6 -29 3 -8 -7 -151 -6 -176 2 -12 3 -21 2 -21
-3 0 -5 -19 -6 -42 -2 -24 3 -54 3 -68 0 -13 -3 -46 -3 -72 0 -26 4 -53 3 -59
-1 -7 -4 -26 -3 -43 2 -17 5 -32 5 -34 1 -1 -5 -22 -6 -45 -2 -23 3 -53 3 -67
0 -13 -3 -46 -3 -72 0 -26 4 -53 3 -59 -1 -7 -4 -26 -3 -43 2 -17 5 -32 5 -34
1 -1 -5 -22 -6 -45 -2 -23 3 -53 3 -67 0 -13 -3 -46 -3 -72 0 -26 4 -53 3 -59
-1 -7 -4 -26 -3 -43 2 -17 5 -32 5 -34 1 -1 -5 -22 -6 -45 -2 -23 3 -53 3 -67
0 -13 -3 -47 -3 -75 1 -27 3 -57 3 -65 0 -8 -4 -28 -5 -45 -1 -16 3 -42 3 -56
-1 -15 -4 -32 -3 -39 1 -7 5 -23 5 -34 0 -12 -4 -30 -4 -41 0 -11 4 -31 4 -45
0 -14 -4 -34 -5 -45 -3 -11 2 -27 3 -35 3 -8 1 -52 1 -98 1 -45 0 -89 2 -97 5
-8 4 -15 2 -15 -3 0 -5 -27 -6 -60 -3 -33 3 -65 3 -71 0 -5 -4 -30 -4 -54 0
-25 4 -45 3 -45 -1 0 -5 -10 -5 -22 0 -13 5 -32 5 -42 1 -11 -3 -38 -3 -62 0
-24 4 -48 4 -55 0 -6 -4 -25 -4 -43 0 -17 3 -43 3 -57 -1 -15 -3 -32 -3 -39 1
-8 5 -23 5 -34 0 -12 -4 -30 -4 -41 0 -11 4 -32 4 -47 -1 -15 -4 -30 -4 -33 0
-2 5 -23 5 -45 1 -22 -4 -43 -4 -45 1 -3 4 -18 4 -34 -1 -15 -4 -34 -4 -41 0
-7 5 -23 5 -34 0 -12 -4 -30 -4 -41 0 -11 4 -31 4 -45 0 -14 -4 -34 -5 -45 -3
-11 2 -27 3 -35 3 -8 1 -52 1 -98 1 -45 0 -89 2 -97 5 -8 4 -15 2 -15 -3 0 -5
-27 -6 -60 -3 -33 3 -65 3 -71 0 -5 -4 -30 -4 -54 0 -25 4 -45 3 -45 -1 0 -5
-10 -5 -22 0 -13 5 -32 5 -42 1 -11 -3 -38 -3 -62 0 -24 4 -48 4 -55 0 -6 -4
-26 -4 -45 0 -18 4 -35 6 -37 3 -4 -4 -89 -6 -124 -4 -8 1 -11 11 -9 24 2 12
0 32 -5 44 -5 12 -4 25 0 27 5 3 6 20 4 38 -3 18 -4 51 -4 73 1 22 1 61 2 87
1 25 -2 51 -5 57 -4 5 -2 12 3 16 6 3 7 16 3 28 -4 12 -6 37 -5 55 6 71 5 130
-1 140 -3 6 -2 13 3 17 6 3 7 16 3 28 -4 12 -6 38 -5 57 6 70 5 129 -1 139 -4
5 -2 12 3 16 6 3 7 16 3 28 -4 12 -6 37 -5 55 6 71 5 130 -1 140 -3 6 -2 13 3
17 6 3 7 16 3 28 -4 12 -6 38 -5 57 6 70 5 129 -1 139 -4 5 -2 12 3 16 6 3 7
16 3 28 -4 12 -6 37 -5 55 6 71 5 130 -1 140 -3 6 -2 13 3 17 6 3 7 16 3 28
-4 12 -6 38 -5 57 6 70 5 129 -1 139 -4 5 -2 12 3 16 6 3 7 15 2 28 -5 12 -5
32 0 45 5 14 5 22 -2 22 -6 0 -7 5 -3 11 3 6 6 32 6 57 -1 31 2 42 9 35 6 -6
24 -8 42 -3z"/>
<path d="M7599 8083 c0 -21 -1 -508 -1 -1082 l-1 -1043 99 1 c55 1 106 2 114
2 8 -1 35 -1 60 -1 25 0 52 1 60 1 8 0 89 0 180 0 91 0 172 0 180 -1 8 0 35 0
60 0 25 0 52 1 60 1 8 0 89 0 180 0 91 0 171 0 178 0 12 -1 84 -1 120 -1 97 1
190 1 202 1 8 -1 35 -1 60 -1 25 0 52 1 60 1 68 0 347 0 355 0 6 0 17 -1 25
-2 8 -1 32 -1 53 -1 l37 2 0 1080 0 1080 -1040 0 -1040 0 -1 -37z"/>
<path d="M9 5799 c-5 -3 -8 -396 -7 -963 l3 -958 3593 0 c1977 0 3596 3 3599
6 7 6 6 1906 0 1913 -7 7 -7177 9 -7188 2z"/>
<path d="M7611 5801 c-13 -8 -19 -171 -7 -190 4 -6 3 -11 -3 -11 -6 0 -8 -6
-5 -14 7 -18 10 -116 4 -116 -7 0 -3 -88 5 -100 3 -5 2 -10 -4 -10 -6 0 -8 -6
-5 -14 7 -19 10 -116 3 -116 -6 0 -2 -78 6 -97 2 -7 0 -13 -5 -13 -5 0 -7 -6
-4 -14 7 -18 10 -116 4 -116 -7 0 -3 -88 5 -100 3 -5 2 -10 -4 -10 -6 0 -8 -6
-5 -14 7 -19 10 -116 3 -116 -6 0 -2 -64 6 -98 3 -13 2 -21 -2 -19 -9 6 -8
-2645 1 -2668 3 -8 2 -15 -2 -15 -8 0 -6 -85 3 -100 3 -5 1 -10 -5 -10 -6 0
-8 -5 -4 -12 7 -11 7 -38 2 -161 -2 -31 0 -57 3 -57 3 0 4 -11 1 -25 l-4 -25
1041 0 1041 0 0 2123 0 2122 -211 -2 c-116 -1 -220 -3 -232 -3 -12 -1 -26 -1
-32 -1 -13 3 -450 2 -461 0 -5 -1 -13 -1 -19 0 -13 2 -449 3 -461 0 -5 -1 -13
-1 -19 0 -5 1 -111 1 -235 1 -252 -2 -291 -1 -300 5 -3 2 -12 0 -19 -5 -8 -4
-26 -4 -41 0 -15 4 -33 5 -39 1z m194 -82 c6 0 60 0 121 1 61 0 115 0 120 -1
5 -1 14 -1 19 0 6 1 42 2 80 1 67 -1 79 -1 108 1 6 0 21 0 32 -1 11 -1 68 -1
126 0 59 0 110 0 115 -1 5 -1 14 -1 19 0 6 1 42 2 80 1 67 -1 79 -1 108 1 6 0
21 0 32 -1 11 -1 68 -1 126 0 59 0 110 0 115 -1 5 -1 14 -1 19 0 6 1 42 2 80
1 67 -1 79 -1 108 1 6 0 21 0 32 -1 11 -1 69 -1 128 0 59 0 112 -2 117 -5 5
-3 11 -1 14 4 6 8 55 6 89 -5 13 -4 15 -9 8 -18 -6 -7 -8 -15 -5 -19 8 -8 10
-357 2 -357 -4 0 -3 -13 2 -29 4 -15 4 -34 0 -42 -5 -7 -5 -20 0 -28 4 -8 4
-25 -1 -38 -5 -13 -4 -25 1 -28 6 -3 6 -15 0 -30 -6 -15 -6 -27 0 -30 6 -3 6
-15 0 -30 -6 -15 -6 -27 0 -30 6 -3 6 -15 0 -30 -6 -15 -6 -27 0 -30 6 -3 6
-15 0 -30 -6 -15 -6 -27 0 -30 6 -3 6 -15 0 -30 -6 -15 -6 -27 0 -30 6 -3 6
-15 0 -30 -6 -15 -6 -27 0 -30 6 -3 6 -15 0 -30 -6 -15 -6 -27 0 -30 6 -3 6
-15 0 -30 -6 -15 -6 -27 0 -30 6 -3 6 -15 0 -29 -5 -13 -6 -27 -3 -30 5 -5 7
-85 3 -103 -2 -5 -1 -12 0 -18 5 -24 1 -175 -4 -184 -4 -5 -2 -12 3 -16 6 -3
7 -15 1 -29 -4 -12 -4 -29 0 -36 5 -8 5 -21 1 -29 -5 -8 -5 -27 -1 -43 5 -15
5 -28 1 -28 -5 0 -5 -18 -1 -40 4 -22 5 -40 1 -40 -3 0 -6 -16 -6 -35 0 -19 4
-35 8 -35 5 0 5 -5 2 -10 -8 -14 -10 -114 -2 -126 3 -6 2 -16 -3 -24 -4 -7 -4
-24 0 -36 6 -14 5 -26 0 -29 -6 -3 -6 -15 0 -30 6 -15 6 -27 0 -30 -6 -3 -6
-15 0 -30 6 -15 6 -27 0 -30 -6 -3 -6 -15 0 -30 6 -15 6 -27 0 -30 -6 -3 -6
-15 0 -30 6 -15 6 -27 0 -30 -6 -3 -6 -15 0 -30 6 -15 6 -27 0 -30 -6 -3 -6
-15 0 -30 6 -15 6 -27 0 -30 -6 -3 -6 -15 0 -30 6 -15 6 -27 0 -30 -6 -3 -6
-15 0 -30 6 -15 6 -27 0 -30 -6 -3 -6 -15 0 -30 6 -15 6 -27 0 -30 -6 -3 -6
-15 0 -30 6 -15 6 -27 0 -30 -6 -3 -6 -15 0 -30 6 -15 6 -27 0 -30 -6 -3 -6
-15 0 -30 6 -15 6 -27 0 -30 -6 -3 -6 -15 0 -30 6 -15 6 -27 0 -30 -6 -3 -6
-15 0 -30 6 -15 6 -27 0 -30 -6 -3 -6 -15 0 -30 6 -15 6 -27 0 -30 -5 -3 -6
-15 0 -29 4 -12 4 -29 0 -36 -5 -8 -5 -21 0 -30 5 -9 5 -22 0 -30 -5 -8 -6
-18 -3 -23 5 -8 7 -90 3 -112 -1 -5 -1 -14 0 -20 5 -24 1 -175 -4 -184 -4 -5
-2 -12 3 -16 6 -3 7 -15 1 -29 -4 -12 -4 -29 0 -36 5 -8 5 -21 1 -29 -5 -8 -5
-27 -1 -43 5 -15 5 -28 1 -28 -5 0 -5 -18 -1 -40 4 -22 5 -40 1 -40 -3 0 -6
-16 -6 -35 0 -19 3 -35 7 -35 4 0 5 -6 2 -14 -9 -24 -10 -79 -3 -108 4 -16 4
-28 -1 -28 -5 0 -5 -13 0 -30 5 -19 5 -30 -1 -30 -6 0 -7 -5 -4 -10 5 -8 9
-141 6 -187 -1 -7 -15 -13 -33 -13 -18 0 -40 0 -48 0 -86 -2 -203 0 -235 4
-11 1 -31 -1 -45 -5 -14 -3 -34 -3 -45 1 -11 4 -30 4 -42 -1 -16 -6 -23 -5
-24 4 0 7 -2 8 -5 1 -3 -6 -22 -8 -53 -4 -26 3 -59 3 -72 0 -13 -4 -33 -4 -44
0 -11 4 -30 4 -42 -1 -16 -6 -23 -5 -24 4 0 9 -2 9 -6 -1 -2 -6 -8 -10 -13 -7
-4 3 -32 5 -62 5 -29 0 -61 0 -70 0 -10 0 -26 0 -35 0 -10 0 -43 1 -73 1 -30
0 -61 0 -67 0 -24 -2 -38 -2 -106 0 -37 1 -70 -1 -73 -4 -4 -3 -17 -2 -30 3
-13 5 -25 6 -28 1 -3 -4 -27 -5 -54 -1 -27 3 -60 3 -73 0 -13 -4 -33 -4 -44 0
-11 4 -30 4 -42 -1 -16 -6 -23 -5 -24 4 0 9 -2 9 -5 0 -4 -8 -13 -9 -27 -4
-12 5 -30 5 -41 2 -10 -4 -40 -4 -66 -1 -25 3 -58 3 -71 0 -13 -4 -33 -4 -44
0 -11 4 -30 4 -42 -1 -16 -6 -23 -5 -24 4 0 8 -2 9 -5 1 -3 -8 -16 -9 -39 -4
-19 4 -37 5 -41 1 -4 -3 -4 9 -2 27 3 18 1 35 -3 37 -4 3 -3 21 1 40 4 19 4
37 0 40 -5 3 -5 17 -1 33 4 15 4 44 1 64 -4 22 -3 38 2 38 5 0 6 4 3 10 -5 8
-7 80 -4 130 0 8 0 26 0 40 -1 14 -1 32 0 40 0 8 0 26 0 40 -1 14 -1 32 0 40
0 8 0 26 0 40 -1 14 -1 32 0 40 0 8 0 26 0 40 -1 14 -1 32 0 40 0 8 0 26 0 40
-1 14 -1 32 0 40 0 8 0 26 0 40 -1 14 -1 32 0 40 0 8 0 26 0 40 -1 14 -1 32 0
40 0 8 0 26 0 40 -1 14 -1 32 0 40 0 8 0 26 0 40 -1 14 -1 32 0 40 0 8 0 26 0
40 -1 14 -1 32 0 40 0 8 0 26 0 40 -1 14 -1 32 0 40 0 8 0 26 0 40 -1 14 -1
32 0 40 0 8 0 26 0 40 -1 14 -1 32 0 40 0 8 0 26 0 40 -1 14 -1 32 0 40 0 8 0
26 0 40 -1 14 -1 32 0 40 0 8 0 26 0 40 -1 14 -1 32 0 40 0 8 0 26 0 40 -1 14
-1 32 0 40 0 8 0 26 0 40 -1 14 -1 32 0 40 0 8 0 26 0 40 -1 14 -1 32 0 40 0
8 0 26 0 40 -1 14 -1 32 0 40 0 8 0 26 0 40 -1 14 -1 32 0 40 0 8 0 26 0 40
-1 14 -1 32 0 40 0 8 0 26 0 40 -1 14 -1 32 0 40 0 8 0 26 0 40 -1 14 -1 32 0
40 0 8 0 26 0 40 -1 14 -1 32 0 40 0 8 0 26 0 40 -1 14 -1 32 0 40 0 8 0 26 0
40 -1 14 -1 32 0 40 0 8 0 26 0 40 -1 14 -1 32 0 40 0 8 0 26 0 40 -1 14 -1
32 0 40 0 8 0 27 0 43 -1 15 -1 39 -2 55 0 15 0 34 0 42 1 8 1 53 0 100 0 47
0 91 0 98 1 6 1 18 2 25 0 6 0 21 -1 32 0 11 0 27 1 35 0 8 0 26 0 40 -1 14
-1 32 0 40 0 8 1 29 0 45 -1 17 -1 37 -1 45 1 8 1 24 0 35 0 11 0 27 1 35 0 8
0 26 0 40 -1 14 -1 32 0 40 0 8 1 29 0 45 -1 17 -1 37 -1 45 1 8 1 24 0 35 0
11 0 27 1 35 0 8 0 26 0 40 -1 14 -1 32 0 40 0 8 1 29 0 45 -1 17 -1 37 -1 45
1 8 1 24 0 35 0 11 0 27 1 35 0 8 0 26 0 40 -1 14 -1 32 -1 40 1 8 0 35 -1 59
-1 24 3 46 9 50 6 3 32 5 59 3 26 -2 53 -3 58 -3z"/>
<path d="M158 3722 l-158 -3 0 -1079 0 -1080 3599 0 3599 0 4 41 c2 22 0 43
-4 45 -5 3 -4 12 0 21 5 8 6 33 2 54 -4 21 -5 39 -1 39 7 0 4 138 -4 158 -2 6
0 12 5 12 5 0 7 6 5 13 -9 23 -11 82 -4 108 4 15 3 32 -1 39 -4 7 -4 26 0 41
5 16 5 42 0 58 -4 15 -4 34 0 41 4 6 4 27 0 46 -4 18 -5 36 -2 39 5 5 4 108
-1 165 -2 14 0 37 4 51 4 15 3 32 -1 39 -4 7 -4 25 0 40 4 15 4 33 0 40 -4 7
-4 25 0 40 4 15 4 33 0 40 -4 7 -4 26 0 41 5 16 5 42 0 58 -4 15 -4 34 0 41 4
6 4 27 0 46 -4 18 -5 36 -2 39 5 5 4 108 -1 165 -2 14 0 37 4 51 4 15 3 32 -1
39 -4 7 -4 25 0 40 4 15 4 33 0 40 -4 7 -4 25 0 40 4 15 4 33 0 40 -4 7 -4 26
0 41 5 16 5 42 0 58 -4 15 -4 34 0 41 4 6 4 26 0 44 -4 17 -4 40 0 51 4 11 4
34 -1 52 -4 18 -3 36 2 39 20 12 -5 24 -49 24 -63 0 -79 0 -99 0 -10 0 -46 0
-80 0 -34 0 -66 0 -70 -1 -4 -1 -12 -1 -18 0 -5 1 -71 1 -145 1 -169 -1 -127
-1 -397 0 -127 0 -235 0 -240 -1 -4 -1 -12 -1 -18 0 -13 2 -611 2 -622 0 -4
-1 -12 -1 -18 0 -13 2 -611 2 -622 0 -4 -1 -12 -1 -18 0 -13 2 -611 2 -622 0
-4 -1 -12 -1 -18 0 -13 2 -451 2 -462 0 -4 -1 -12 -1 -18 0 -5 1 -71 1 -145 1
-74 -1 -144 -1 -155 0 -27 2 -21 2 -183 0 -78 0 -146 2 -151 5 -6 3 -12 2 -15
-3 -3 -4 -30 -5 -60 -2 -31 3 -60 4 -65 1 -5 -4 -60 -4 -122 -1 -63 3 -138 3
-167 0 -30 -3 -55 -3 -57 0 -2 3 -81 3 -177 0 -95 -3 -204 -3 -241 0 -38 3
-70 2 -72 -1 -2 -3 -29 -2 -59 1 -31 3 -61 3 -67 -1 -6 -3 -25 -3 -42 0 -17 4
-55 4 -84 1 -30 -3 -55 -4 -57 -2 -2 2 -66 3 -143 2 -169 -1 -125 -1 -400 0
-127 0 -235 0 -240 -1 -4 -1 -12 -1 -18 0 -30 4 -619 1 -623 -4 -3 -3 -10 -1
-16 3 -6 4 -82 6 -168 4z m72 -87 c6 -3 10 -1 10 5 0 8 6 8 20 0 11 -6 20 -7
20 -2 0 5 18 6 40 2 23 -4 43 -3 46 2 3 5 12 4 20 -3 8 -6 14 -7 14 -2 0 6 18
7 45 3 24 -4 49 -4 56 0 6 4 25 4 43 0 17 -3 43 -3 58 1 16 4 30 3 34 -2 3 -5
12 -5 23 1 10 5 20 7 22 5 5 -5 83 -6 124 -2 17 1 40 -1 53 -5 13 -4 22 -3 22
3 0 6 7 6 20 -1 11 -6 20 -7 20 -2 0 5 18 6 40 2 23 -4 43 -3 46 2 3 5 12 4
20 -3 8 -6 14 -7 14 -2 0 6 18 7 45 3 24 -4 49 -4 56 0 6 4 26 4 45 0 18 -4
35 -5 38 -3 7 8 112 7 125 -1 6 -4 11 -2 11 4 0 8 6 8 20 0 14 -8 20 -8 20 0
0 6 4 9 8 6 10 -6 77 -8 112 -3 14 2 36 0 50 -4 14 -3 34 -3 45 1 11 4 30 4
43 -1 14 -5 22 -5 22 2 0 6 7 6 20 -1 11 -6 20 -7 20 -2 0 5 18 6 40 2 23 -4
43 -3 46 2 3 5 12 4 20 -3 8 -6 14 -8 14 -3 0 5 36 7 81 4 44 -3 86 -2 91 1 6
4 23 3 38 -1 15 -4 33 -4 40 0 7 4 25 4 40 0 15 -4 33 -4 40 0 7 4 26 4 43 -1
17 -5 37 -4 47 1 10 5 19 7 21 5 5 -5 83 -6 124 -2 17 1 40 -1 53 -5 13 -4 22
-3 22 3 0 6 7 6 20 -1 11 -6 20 -7 20 -2 0 5 18 6 40 2 23 -4 43 -3 46 2 3 5
12 4 20 -3 8 -6 14 -7 14 -2 0 6 18 7 45 3 24 -4 49 -4 56 0 6 4 25 4 43 1 17
-4 42 -5 56 -1 13 3 46 3 72 0 26 -4 53 -3 59 1 7 4 24 3 39 -1 15 -4 33 -4
40 0 7 4 25 4 40 0 15 -4 33 -4 40 0 7 4 24 4 39 0 14 -4 35 -4 46 0 11 4 30
4 43 -1 14 -5 22 -5 22 2 0 6 7 6 20 -1 14 -8 20 -8 20 0 0 6 4 9 8 6 10 -6
77 -8 112 -3 14 2 36 0 50 -4 14 -3 34 -3 45 1 11 4 30 4 43 -1 14 -5 22 -5
22 2 0 6 7 6 20 -1 11 -6 20 -7 20 -2 0 5 18 6 40 2 23 -4 43 -3 46 2 3 5 12
4 20 -3 8 -6 14 -7 14 -2 0 6 18 7 45 3 24 -4 50 -3 57 1 6 4 15 6 18 4 8 -5
85 -6 125 -2 17 1 40 -1 53 -5 13 -4 22 -3 22 3 0 6 7 6 20 -1 11 -6 20 -7 20
-2 0 5 18 6 40 2 23 -4 43 -3 46 2 3 5 12 4 20 -3 8 -6 14 -7 14 -2 0 6 18 7
45 3 24 -4 49 -4 56 0 6 4 25 4 43 0 17 -3 43 -3 58 1 16 4 30 3 34 -2 3 -5
12 -5 23 1 10 5 20 7 22 5 5 -5 83 -6 124 -2 17 1 40 -1 53 -5 13 -4 22 -3 22
3 0 6 7 6 20 -1 11 -6 20 -7 20 -2 0 5 18 6 40 2 23 -4 43 -3 46 2 3 5 12 4
20 -3 8 -6 14 -7 14 -2 0 6 18 7 45 3 24 -4 49 -4 56 0 6 4 25 4 43 0 17 -3
43 -3 58 1 16 4 30 3 34 -2 3 -5 12 -5 23 1 10 5 20 7 22 5 5 -5 83 -6 124 -2
17 1 40 -1 53 -5 13 -4 22 -3 22 3 0 6 7 6 20 -1 11 -6 20 -7 20 -2 0 5 18 6
40 2 23 -4 43 -3 46 2 3 5 12 4 20 -3 8 -6 14 -7 14 -2 0 6 18 7 45 3 24 -4
49 -4 56 0 6 4 25 4 43 0 17 -3 43 -3 58 1 16 4 30 3 34 -2 3 -5 12 -5 23 1
10 5 20 7 22 5 5 -5 83 -6 124 -2 17 1 40 -1 53 -5 13 -4 22 -3 22 3 0 6 7 6
20 -1 11 -6 20 -7 20 -2 0 5 18 6 40 2 23 -4 43 -3 46 2 3 5 12 4 20 -3 8 -6
14 -7 14 -2 0 6 18 7 45 3 24 -4 49 -4 56 0 6 4 26 4 45 0 18 -4 35 -5 38 -3
7 8 112 7 125 -1 6 -4 11 -2 11 4 0 8 6 8 20 0 14 -8 20 -8 20 0 0 6 4 9 8 6
10 -6 77 -8 112 -3 14 2 36 0 50 -4 14 -3 34 -3 45 1 11 4 30 4 43 -1 14 -5
22 -5 22 2 0 6 7 6 20 -1 11 -6 20 -7 20 -2 0 5 18 6 40 2 23 -4 43 -3 46 2 3
5 12 4 20 -3 8 -6 14 -8 14 -3 0 5 36 8 81 6 65 -3 79 -6 75 -18 -3 -8 0 -14
7 -15 9 0 9 -2 0 -5 -7 -3 -8 -15 -4 -32 4 -14 4 -45 1 -69 -4 -24 -3 -43 1
-43 4 0 4 -12 0 -27 -4 -16 -4 -40 0 -55 4 -15 5 -29 3 -31 -5 -4 -5 -98 -2
-205 2 -39 1 -72 -2 -72 -7 0 -3 -88 5 -100 3 -5 2 -10 -4 -10 -5 0 -6 -11 -2
-27 4 -15 4 -46 1 -70 -4 -24 -3 -43 1 -43 4 0 4 -12 0 -27 -4 -16 -4 -40 0
-55 4 -14 5 -28 3 -31 -5 -4 -5 -97 -2 -205 2 -39 1 -72 -2 -72 -7 0 -3 -88 5
-100 3 -5 2 -10 -4 -10 -5 0 -6 -11 -2 -27 4 -15 4 -46 1 -70 -4 -24 -3 -43 1
-43 4 0 4 -13 -1 -29 -4 -16 -6 -32 -4 -34 7 -6 10 -167 4 -167 -7 0 -3 -88 5
-100 3 -5 0 -10 -7 -11 -7 0 -8 -2 -3 -5 6 -2 9 -35 7 -76 -2 -40 -3 -83 -3
-95 1 -22 -15 -29 -44 -23 -5 1 -35 1 -65 1 -151 -3 -246 -2 -285 3 -11 1 -31
-1 -45 -5 -14 -3 -34 -3 -45 1 -11 4 -30 4 -42 -1 -16 -6 -23 -5 -24 4 0 7 -2
8 -5 1 -3 -6 -22 -8 -53 -4 -26 3 -59 3 -72 0 -13 -4 -33 -4 -44 0 -11 4 -30
4 -42 -1 -16 -6 -23 -5 -24 4 0 9 -2 9 -6 -1 -2 -6 -8 -10 -13 -7 -4 3 -32 5
-62 5 -29 0 -61 0 -70 0 -10 0 -26 0 -35 0 -10 0 -43 1 -73 1 -30 0 -61 0 -67
0 -24 -2 -38 -2 -106 0 -37 1 -70 -1 -73 -4 -4 -3 -17 -2 -30 3 -13 5 -25 6
-28 1 -3 -4 -27 -5 -54 -1 -27 3 -60 3 -73 0 -13 -4 -33 -4 -44 0 -11 4 -30 4
-42 -1 -16 -6 -23 -5 -24 4 0 9 -2 9 -5 0 -4 -8 -13 -9 -27 -4 -12 5 -30 5
-41 2 -10 -4 -40 -4 -66 -1 -25 3 -58 3 -71 0 -13 -4 -33 -4 -44 0 -11 4 -30
4 -42 -1 -16 -6 -23 -5 -24 4 0 6 -2 8 -5 2 -2 -5 -25 -9 -51 -8 -122 5 -161
5 -169 1 -5 -3 -18 -2 -29 2 -11 4 -30 4 -42 -1 -16 -6 -23 -5 -24 4 0 9 -2 9
-5 0 -4 -8 -13 -9 -27 -4 -12 5 -30 5 -41 2 -10 -4 -40 -4 -66 -1 -25 3 -58 3
-71 0 -13 -4 -33 -4 -44 0 -11 4 -30 4 -42 -1 -16 -6 -23 -5 -24 4 0 9 -2 9
-6 -1 -2 -6 -8 -10 -12 -8 -6 4 -95 7 -171 5 -94 -1 -184 1 -215 5 -11 1 -31
-1 -45 -5 -14 -3 -34 -3 -45 1 -11 4 -30 4 -42 -1 -16 -6 -23 -5 -24 4 0 7 -2
8 -5 1 -3 -6 -22 -8 -53 -4 -26 3 -59 3 -72 0 -13 -4 -33 -4 -44 0 -11 4 -30
4 -42 -1 -16 -6 -23 -5 -24 4 0 9 -2 9 -6 -1 -2 -6 -8 -10 -13 -7 -4 3 -32 5
-62 5 -29 0 -61 0 -70 0 -10 0 -26 0 -35 0 -10 0 -43 1 -73 1 -30 0 -61 0 -67
0 -24 -2 -38 -2 -106 0 -37 1 -70 -1 -73 -4 -4 -3 -17 -2 -30 3 -13 5 -25 6
-28 1 -3 -4 -27 -5 -54 -1 -27 3 -60 3 -73 0 -13 -4 -33 -4 -44 0 -11 4 -30 4
-42 -1 -16 -6 -23 -5 -24 4 0 9 -2 9 -5 0 -4 -8 -13 -9 -27 -4 -12 5 -30 5
-41 2 -10 -4 -40 -4 -66 -1 -25 3 -58 3 -71 0 -13 -4 -33 -4 -44 0 -11 4 -30
4 -42 -1 -16 -6 -23 -5 -24 4 0 6 -2 8 -5 2 -2 -5 -25 -9 -51 -8 -122 5 -161
5 -169 1 -5 -3 -18 -2 -29 2 -11 4 -30 4 -43 -1 -15 -6 -22 -5 -23 4 0 9 -2 9
-5 0 -4 -8 -13 -9 -27 -4 -12 5 -30 5 -41 2 -10 -4 -40 -4 -66 -1 -25 3 -58 3
-71 0 -13 -4 -33 -4 -44 0 -11 4 -30 4 -42 -1 -16 -6 -23 -5 -24 4 0 9 -2 9
-6 -1 -2 -6 -8 -10 -12 -8 -6 4 -95 7 -171 5 -94 -1 -184 1 -215 5 -11 1 -31
-1 -45 -5 -14 -3 -34 -3 -45 1 -11 4 -30 4 -42 -1 -16 -6 -23 -5 -24 4 0 7 -2
8 -5 1 -3 -6 -22 -8 -53 -4 -26 3 -59 3 -72 0 -13 -4 -33 -4 -44 0 -11 4 -30
4 -43 -1 -15 -6 -22 -5 -23 4 0 9 -2 9 -6 -1 -2 -6 -8 -10 -13 -7 -4 3 -32 5
-62 5 -29 0 -61 0 -70 0 -10 0 -26 0 -35 0 -10 0 -43 1 -73 1 -30 0 -61 0 -67
0 -24 -2 -38 -2 -106 0 -37 1 -70 -1 -73 -4 -4 -3 -17 -2 -30 3 -13 5 -25 6
-28 1 -3 -4 -27 -5 -54 -1 -27 3 -60 3 -73 0 -13 -4 -33 -4 -44 0 -11 4 -30 4
-43 -1 -15 -6 -22 -5 -23 4 0 9 -2 9 -5 0 -4 -8 -13 -9 -27 -4 -12 5 -30 5
-41 2 -10 -4 -39 -4 -65 -1 -25 3 -58 3 -71 0 -14 -3 -42 -3 -62 0 -22 4 -41
3 -47 -3 -8 -8 -11 1 -12 29 -1 21 0 44 1 49 5 22 2 103 -4 113 -3 6 -2 13 3
17 6 3 7 16 3 28 -4 12 -6 38 -5 57 6 70 5 129 -1 139 -4 5 -2 12 3 16 6 3 7
16 3 28 -4 12 -6 37 -5 55 6 71 5 130 -1 140 -3 6 -2 13 3 17 6 3 7 16 3 28
-4 12 -6 38 -5 57 6 70 5 129 -1 139 -4 5 -2 12 3 16 6 3 7 16 3 28 -4 12 -6
37 -5 55 6 71 5 130 -1 140 -3 6 -2 13 3 17 6 3 7 16 3 28 -4 12 -6 38 -5 57
6 70 5 129 -1 139 -4 5 -2 12 3 16 6 3 7 16 3 28 -4 12 -6 37 -5 55 6 71 5
130 -1 140 -3 6 -2 13 3 17 6 3 7 16 3 28 -4 12 -6 38 -5 57 6 69 5 131 -1
137 -3 3 -1 12 5 19 5 7 6 15 1 18 -5 3 -6 24 -3 48 5 39 9 43 34 44 15 1 29
3 32 6 6 6 73 0 85 -7z"/>
</g>
</svg>
